<svg width="11" height="11" viewBox="0 0 11 11" fill="none" xmlns="http://www.w3.org/2000/svg">
<path d="M4.74968 4.33978L3.3046 5.80939L4.72116 7.25L4.03665 7.9268L2.62959 6.49586L1.19402 7.9558L0.519014 7.23066L1.93557 5.79006L0.5 4.33011L1.1655 3.63398L2.61058 5.10359L4.05566 3.63398L4.74968 4.33978Z" fill="black"/>
<path d="M7.66688 7.9558H10.5V9H6.03166V8.10083L7.79047 6.3605C8.63661 5.52901 9.23555 4.85221 9.23555 4.12707C9.23555 3.57597 8.8933 3.09254 8.18026 3.09254C7.4292 3.09254 7.03941 3.62431 6.8873 4.49448L5.78447 4.25276C5.90806 2.92818 6.86828 2 8.19928 2C9.60633 2 10.4049 2.97652 10.4049 4.10773C10.4049 5.29696 9.55879 6.12845 8.37041 7.27901L7.66688 7.9558Z" fill="black"/>
</svg>
